<?xml version="1.0" encoding="UTF-8"?>
<svg xmlns="http://www.w3.org/2000/svg" xmlns:xlink="http://www.w3.org/1999/xlink" width="854" height="480" viewBox="0 0 854 480">
<defs>
<g>
<g id="glyph-0-0">
<path d="M 1.796875 0.0625 C 1.316406 0.0625 0.960938 -0.109375 0.734375 -0.453125 C 0.503906 -0.796875 0.390625 -1.289062 0.390625 -1.9375 C 0.390625 -2.59375 0.503906 -3.09375 0.734375 -3.4375 C 0.960938 -3.78125 1.316406 -3.953125 1.796875 -3.953125 C 1.972656 -3.953125 2.125 -3.925781 2.25 -3.875 C 2.382812 -3.832031 2.5 -3.769531 2.59375 -3.6875 C 2.6875 -3.601562 2.765625 -3.507812 2.828125 -3.40625 C 2.890625 -3.300781 2.945312 -3.195312 3 -3.09375 L 2.59375 -2.921875 C 2.5625 -3.003906 2.519531 -3.082031 2.46875 -3.15625 C 2.425781 -3.226562 2.375 -3.289062 2.3125 -3.34375 C 2.25 -3.40625 2.175781 -3.453125 2.09375 -3.484375 C 2.007812 -3.523438 1.910156 -3.546875 1.796875 -3.546875 C 1.484375 -3.546875 1.253906 -3.425781 1.109375 -3.1875 C 0.960938 -2.957031 0.890625 -2.648438 0.890625 -2.265625 L 0.890625 -1.625 C 0.890625 -1.238281 0.960938 -0.925781 1.109375 -0.6875 C 1.253906 -0.457031 1.484375 -0.34375 1.796875 -0.34375 C 1.910156 -0.34375 2.007812 -0.359375 2.09375 -0.390625 C 2.175781 -0.421875 2.25 -0.460938 2.3125 -0.515625 C 2.375 -0.578125 2.425781 -0.644531 2.46875 -0.71875 C 2.519531 -0.800781 2.5625 -0.882812 2.59375 -0.96875 L 3 -0.78125 C 2.945312 -0.675781 2.890625 -0.570312 2.828125 -0.46875 C 2.765625 -0.375 2.6875 -0.285156 2.59375 -0.203125 C 2.5 -0.117188 2.382812 -0.0507812 2.25 0 C 2.125 0.0390625 1.972656 0.0625 1.796875 0.0625 Z "/>
</g>
</g>
</defs>
<g fill="rgb(100%, 68.235294%, 0%)" fill-opacity="1">
<use xlink:href="#glyph-0-0" x="30" y="25.694336"/>
</g>
</svg>
